<svg xmlns:xlink="http://www.w3.org/1999/xlink" width="18" height="18" viewBox="0 0 18 18" fill="none" xmlns="http://www.w3.org/2000/svg">
        <g style="mix-blend-mode:multiply" clip-path="url(#clip0_13763_516)" fill="none">
            <rect width="18" height="18"></rect>
            <g style="mix-blend-mode:multiply" fill="currentColor">
                <rect width="18" height="18" fill="#FFFFFF"></rect>
                <path d="M11.5605 10.4917C11.7884 10.5689 12.0912 10.6791 12.4062 10.7993C12.7205 10.9192 13.0407 11.0464 13.3037 11.1567C13.4355 11.212 13.5504 11.2618 13.6406 11.3032C13.6856 11.3239 13.7224 11.3417 13.751 11.356C13.765 11.363 13.7759 11.3691 13.7842 11.3735C13.7883 11.3757 13.7917 11.3772 13.7939 11.3784C13.7959 11.3795 13.7969 11.3804 13.7969 11.3804C15.3329 12.2938 16.0585 13.5557 16.0547 15.2095C16.0533 15.8167 15.9684 16.194 15.8359 16.4526C15.7124 16.6936 15.5139 16.8968 15.1475 17.0933C15.0846 17.1269 15.0849 17.1277 15.0352 17.1372C14.9416 17.155 14.7581 17.1742 14.3486 17.189C13.5402 17.218 12.0208 17.2252 8.97266 17.2388C5.5948 17.2538 3.99296 17.2628 3.13965 17.2007C2.7163 17.1698 2.55705 17.126 2.4834 17.0952C2.42034 17.0689 2.39036 17.0459 2.19824 16.8853V16.8843C1.96667 16.6907 1.89862 16.5848 1.85059 16.4253C1.78279 16.1999 1.75 15.8358 1.75 15.0786C1.75 14.3777 1.75315 14.1176 1.78223 13.9399C1.803 13.8131 1.83254 13.7397 2.00293 13.394C2.16299 13.0695 2.46826 12.6608 2.85449 12.2671C3.23881 11.8754 3.65917 11.5429 4.01758 11.3472H4.01855C4.29508 11.1962 4.81531 10.9774 5.32715 10.7915C5.57825 10.7003 5.81305 10.622 5.99902 10.5679C6.09227 10.5407 6.16618 10.5219 6.21973 10.5103L6.2207 10.5093C6.25005 10.5169 6.2877 10.5275 6.33301 10.5415C6.45763 10.58 6.61334 10.6347 6.76465 10.6958H6.76562C7.46904 10.9796 8.2973 11.0914 9.08398 11.062C9.86872 11.0327 10.6777 10.8612 11.332 10.5181V10.5171C11.3729 10.4957 11.4123 10.4748 11.4492 10.4556C11.4827 10.4664 11.52 10.478 11.5605 10.4917Z" stroke="#10B1E8" stroke-width="1.5px" fill="none"></path>
                <path d="M8.90234 0.75C10.8784 0.750218 12.5418 2.44311 12.542 4.60938C12.542 6.77582 10.8786 8.46951 8.90234 8.46973C6.92595 8.46973 5.26172 6.77596 5.26172 4.60938C5.26191 2.44297 6.92607 0.75 8.90234 0.75Z" stroke="#10B1E8" stroke-width="1.5px" fill="none"></path>
            </g>
        </g>
        <defs>
            <clipPath id="clip0_13763_516">
                <rect width="18" height="18"></rect>
            </clipPath>
        </defs>
    </svg>