<svg xmlns:xlink="http://www.w3.org/1999/xlink" width="18" height="18" viewBox="0 0 18 18" fill="none" xmlns="http://www.w3.org/2000/svg">
        <g clip-path="url(#clip0_13797_676)" fill="none">
            <rect width="18" height="18" fill="#FFFFFF"></rect>
            <g style="mix-blend-mode:multiply" clip-path="url(#clip1_13797_676)" fill="none"><rect width="18" height="18" fill="#FFFFFF"></rect><path d="M8.92578 1.44629C12.6266 1.44377 14.3871 1.43717 15.2695 1.47656C15.6971 1.49566 15.9914 1.52704 16.2139 1.60742C16.4658 1.69847 16.6306 1.8708 16.6709 1.9043C16.847 2.05001 17.0581 2.31298 17.1768 2.5166L17.293 2.71973C17.3347 2.8003 17.3759 2.89539 17.4092 3.00781C17.4721 3.22058 17.5028 3.48007 17.5215 3.85449C17.559 4.60622 17.5559 6.01257 17.5557 8.87695C17.5556 10.5136 17.5508 11.8361 17.543 12.7773C17.539 13.2476 17.534 13.6246 17.5283 13.8984C17.523 14.1529 17.5172 14.3591 17.5049 14.4521C17.396 15.278 17.002 15.9514 16.3066 16.3428C16.0589 16.4822 15.7794 16.5556 15.4951 16.5557H2.51367C2.21061 16.5557 1.91251 16.478 1.64746 16.3311C1.16358 16.0628 0.757212 15.5325 0.576172 14.9941C0.489026 14.7349 0.444336 14.4629 0.444336 14.1895V3.6748C0.444336 3.39282 0.497073 3.11326 0.599609 2.85059C0.831215 2.25747 1.30883 1.73975 1.89355 1.52539L2.01074 1.49609C2.0265 1.49384 2.04023 1.49296 2.04883 1.49219C2.06692 1.49056 2.08646 1.48911 2.10254 1.48828C2.13583 1.48658 2.17878 1.48478 2.22852 1.4834C2.32951 1.4806 2.47221 1.47814 2.65039 1.47559C3.00749 1.47048 3.51537 1.46601 4.13574 1.46191C5.37711 1.45373 7.0741 1.44754 8.92578 1.44629Z" stroke="#0FAEE7" stroke-width="1.11111px" fill="none"></path><path fill-rule="evenodd" clip-rule="evenodd" d="M5.19141 12.4846V5.69449C5.1914 5.47145 5.23446 5.25061 5.3181 5.04462C5.40175 4.83864 5.52433 4.65157 5.67882 4.49414C5.83332 4.33672 6.01668 4.21203 6.2184 4.12724C6.42012 4.04244 6.63623 3.99921 6.85432 4.00001H13.2189C13.3117 4.00001 13.4007 4.03771 13.4663 4.10483C13.5319 4.17194 13.5688 4.26296 13.5688 4.35787C13.5688 4.45278 13.5319 4.5438 13.4663 4.61091C13.4007 4.67803 13.3117 4.71573 13.2189 4.71573H6.85432C6.60097 4.71733 6.35845 4.82097 6.1793 5.00417C6.00015 5.18738 5.89882 5.4354 5.89725 5.69449V12.4846C5.89882 12.7437 6.00015 12.9917 6.1793 13.175C6.35845 13.3582 6.60097 13.4618 6.85432 13.4634H13.494C13.7484 13.4634 13.9925 13.3605 14.1729 13.1771C14.3533 12.9937 14.4555 12.7448 14.4571 12.4846V5.92695L14.2118 6.17775C14.1792 6.21109 14.1405 6.23754 14.0979 6.25558C14.0553 6.27362 14.0097 6.28291 13.9636 6.28291C13.9175 6.28291 13.8718 6.27362 13.8292 6.25558C13.7866 6.23754 13.7479 6.21109 13.7153 6.17775C13.6827 6.14441 13.6569 6.10484 13.6392 6.06128C13.6216 6.01772 13.6125 5.97103 13.6125 5.92389C13.6125 5.87674 13.6216 5.83005 13.6392 5.7865C13.6569 5.74294 13.6827 5.70336 13.7153 5.67002L14.81 4.55056L15.8987 5.67002C15.9637 5.73735 15.9999 5.82835 15.9994 5.92299C15.9988 6.01764 15.9615 6.10818 15.8957 6.17469C15.8298 6.24121 15.7409 6.27826 15.6483 6.27769C15.5558 6.27711 15.4672 6.23896 15.4022 6.17164L15.1689 5.90859V12.4846C15.1689 12.934 14.9943 13.365 14.6836 13.6828C14.3729 14.0006 13.9514 14.1791 13.512 14.1791H6.85432C6.63623 14.1799 6.42012 14.1367 6.2184 14.0519C6.01668 13.9671 5.83332 13.8424 5.67882 13.685C5.52433 13.5276 5.40175 13.3405 5.3181 13.1345C5.23446 12.9285 5.1914 12.7077 5.19141 12.4846Z" fill="#10B1E8"></path><path fill-rule="evenodd" clip-rule="evenodd" d="M4.09371 13.4582V12.6507C4.09383 12.5517 4.08178 12.453 4.05782 12.3571C4.03596 12.2698 3.99954 12.187 3.95015 12.1124C3.89924 12.0449 3.83371 11.9905 3.75873 11.9533C3.67489 11.9118 3.58272 11.8908 3.48956 11.8921C3.4202 11.8922 3.35138 11.9047 3.28618 11.9289C3.21651 11.9556 3.1541 11.9989 3.10415 12.0553C3.0542 12.1117 3.01817 12.1795 2.99906 12.2531C2.957 12.1693 2.89274 12.0994 2.81362 12.0512C2.73444 11.9938 2.64128 11.9599 2.54445 11.9533C2.43979 11.9519 2.33731 11.984 2.25134 12.0451C2.16744 12.1063 2.10296 12.1914 2.06591 12.2898C2.02058 12.4044 1.99821 12.5271 2.00011 12.6507V13.4459L4.09371 13.4582ZM2.86148 13.0544H2.33509V12.669C2.33434 12.6138 2.34666 12.5593 2.37098 12.51C2.39083 12.4691 2.42204 12.435 2.4607 12.4121C2.50497 12.3888 2.55459 12.3783 2.60426 12.3815C2.65185 12.3804 2.69902 12.3909 2.74184 12.4121C2.78167 12.4327 2.81489 12.4646 2.83755 12.5039C2.86289 12.5506 2.8753 12.6034 2.87344 12.6568L2.86148 13.0544ZM3.7707 13.0544H3.17253V12.6201C3.16768 12.5593 3.17797 12.4983 3.20243 12.4427C3.22721 12.3962 3.2646 12.3579 3.31011 12.3326C3.35813 12.3072 3.4116 12.2946 3.46563 12.2959C3.51963 12.2949 3.57304 12.3075 3.62115 12.3326C3.66709 12.3573 3.70462 12.3957 3.72883 12.4427C3.75692 12.4974 3.77131 12.5583 3.7707 12.6201V13.0544Z" fill="#10B1E8"></path><path fill-rule="evenodd" clip-rule="evenodd" d="M4.09327 11.4938V11.0901H3.31565V10.6986L4.09327 10.2581V9.79932L3.31565 10.2581L3.2319 10.3132H3.20199C3.17293 10.2387 3.12797 10.1718 3.0704 10.1174C3.01175 10.061 2.94257 10.0173 2.86702 9.98895C2.7826 9.95871 2.69308 9.94623 2.60382 9.95225C2.51781 9.95221 2.43257 9.96882 2.35259 10.0012C2.29008 10.0288 2.23325 10.0682 2.1851 10.1174C2.13065 10.1756 2.08796 10.2442 2.05949 10.3193C2.04675 10.3531 2.03675 10.3878 2.02958 10.4233C2.0266 10.4681 2.0266 10.513 2.02958 10.5579C2.02958 10.6129 2.02958 10.6741 2.02958 10.7475V11.4877L4.09327 11.4938ZM2.98665 11.0901H2.33465V10.7903C2.33081 10.7415 2.33081 10.6924 2.33465 10.6435C2.33045 10.611 2.33045 10.5781 2.33465 10.5456C2.35415 10.4893 2.39222 10.4417 2.44232 10.411C2.4956 10.3818 2.55533 10.3671 2.61579 10.3682C2.66063 10.3656 2.70552 10.3724 2.7477 10.3881C2.78988 10.4039 2.82845 10.4284 2.86104 10.46C2.92211 10.5307 2.95425 10.6227 2.95076 10.7169L2.98665 11.0901Z" fill="#10B1E8"></path><path fill-rule="evenodd" clip-rule="evenodd" d="M4.09152 9.74374V9.33388L3.55317 9.14425V8.35512L4.09152 8.16548V7.74951L2.00391 8.53252V8.96073L4.09152 9.74374ZM3.2481 9.04025L2.6918 8.83838L2.60208 8.8078H2.49441H2.41066H2.49441H2.60208H2.70377L3.26006 8.61204L3.2481 9.04025Z" fill="#10B1E8"></path><path d="M4.09152 7.07715H2.00391V7.48089H4.09152V7.07715Z" fill="#10B1E8"></path><path fill-rule="evenodd" clip-rule="evenodd" d="M4.09152 6.56148V6.15162H2.56619H2.60208L2.68582 6.1088L2.79349 6.04763L2.89518 5.98034L4.09152 5.13004V4.73242H2.00391V5.13616H3.53522H3.49933L3.41559 5.17898L3.3139 5.2218L3.20025 5.30744L2.00391 6.15162V6.55536L4.09152 6.56148Z" fill="#10B1E8"></path><path fill-rule="evenodd" clip-rule="evenodd" d="M7.67196 12.0939C7.46007 11.9689 7.2925 11.7782 7.19342 11.5495C7.0864 11.2904 7.03539 11.0108 7.04388 10.7298V9.8244V6.44767C7.04388 6.35033 7.08169 6.25697 7.149 6.18814C7.2163 6.11931 7.30759 6.08064 7.40278 6.08064C7.49797 6.08064 7.58926 6.11931 7.65656 6.18814C7.72387 6.25697 7.76168 6.35033 7.76168 6.44767V9.8244V10.7481C7.74692 10.9817 7.81252 11.2133 7.94712 11.4026C8.02158 11.4876 8.1145 11.5534 8.2184 11.5948C8.32231 11.6363 8.43428 11.6522 8.54529 11.6412C8.65622 11.6512 8.76791 11.6349 8.87165 11.5935C8.9754 11.5521 9.06842 11.4868 9.14346 11.4026C9.26641 11.2245 9.32556 11.0085 9.31094 10.7909C9.30987 10.7726 9.30987 10.7542 9.31094 10.7359V6.44767C9.30447 6.39759 9.30853 6.34667 9.32286 6.29832C9.33718 6.24997 9.36143 6.20531 9.39399 6.16732C9.42655 6.12933 9.46668 6.09889 9.51167 6.07803C9.55666 6.05718 9.60549 6.04639 9.65489 6.04639C9.70429 6.04639 9.75312 6.05718 9.79812 6.07803C9.84311 6.09889 9.88323 6.12933 9.91579 6.16732C9.94835 6.20531 9.97261 6.24997 9.98693 6.29832C10.0013 6.34667 10.0053 6.39759 9.99884 6.44767V6.57614V10.7848C9.98021 11.0523 9.90685 11.3128 9.7835 11.5495C9.68206 11.7766 9.51507 11.9666 9.30496 12.0939C9.05134 12.232 8.76667 12.2995 8.47949 12.2897C8.19823 12.2974 7.91987 12.23 7.67196 12.0939Z" fill="#10B1E8"></path><path fill-rule="evenodd" clip-rule="evenodd" d="M10.6664 11.8539V6.48296C10.6604 6.42783 10.666 6.37201 10.683 6.31931C10.6999 6.26661 10.7278 6.21828 10.7648 6.17763C10.8017 6.13697 10.8467 6.10494 10.8969 6.08374C10.947 6.06253 11.001 6.05265 11.0552 6.05476H12.0901C12.3778 6.04467 12.6635 6.10773 12.9215 6.23827C13.1316 6.35159 13.2996 6.53205 13.4001 6.75212C13.5074 7.00675 13.5585 7.28247 13.5496 7.5596V8.28144C13.5643 8.48205 13.539 8.68362 13.4752 8.87394C13.4115 9.06426 13.3106 9.23937 13.1787 9.38866C13.0211 9.52608 12.8386 9.63032 12.6415 9.6954C12.4444 9.76049 12.2367 9.78513 12.0303 9.76793H11.3962V11.7071V11.8478C11.3849 11.9378 11.3419 12.0204 11.2753 12.0803C11.2087 12.1402 11.123 12.1733 11.0343 12.1733C10.9456 12.1733 10.8599 12.1402 10.7933 12.0803C10.7267 12.0204 10.6837 11.9378 10.6724 11.8478L10.6664 11.8539ZM12.6404 8.98492C12.7827 8.81571 12.8536 8.59577 12.8378 8.37319V7.52901C12.8517 7.31064 12.7903 7.09419 12.6643 6.91729C12.5876 6.83678 12.4936 6.77555 12.3898 6.7384C12.286 6.70126 12.1752 6.6892 12.0661 6.70318H11.3962V9.17455H12.0362C12.255 9.19343 12.4722 9.12306 12.6404 8.9788V8.98492Z" fill="#10B1E8"></path></g>
        </g>
        <defs>
            <clipPath id="clip0_13797_676">
                <rect width="18" height="18" fill="white"></rect>
            </clipPath>
            <clipPath id="clip1_13797_676">
                <rect width="18" height="18" fill="white"></rect>
            </clipPath>
        </defs>
    </svg>