<svg xmlns:xlink="http://www.w3.org/1999/xlink" xmlns="http://www.w3.org/2000/svg" width="20" height="20"><defs><svg id="2402" data-name="Layer 1" viewBox="0 0 400 400" xmlns="http://www.w3.org/2000/svg"><defs><style>.olcls-1,.olcls-2{fill:#00b1eb;stroke-width:5px;stroke:#00b1eb;stroke-linecap:round;stroke-linejoin:round}.olcls-2{fill:none;stroke-width:7px}</style></defs><path class="olcls-2" d="M234.24 143.79h-71.57l-18.69-23.44a19.985 19.985 0 0 0-15.63-7.53H80.11c-10.49 0-19.62 7.18-22.09 17.38L23.54 272.73c-7 28.92 13.7 57.85 43.43 59.19.73.03 1.47.05 2.21.05h.29c12.44-.07 24.19-5.79 32.32-15.21l55.02-63.73h86.22"></path><path class="olcls-2" d="M165.76 143.79h71.57l18.69-23.44c3.79-4.76 9.55-7.53 15.63-7.53h48.24c10.49 0 19.62 7.18 22.09 17.38l34.47 142.53c7 28.92-13.7 57.85-43.43 59.19-.73.03-1.47.05-2.21.05-.7 0-1.39-.01-2.08-.04-11.8-.5-22.78-6.19-30.49-15.13l-55.06-63.77h-86.22M200 68.04v75.75"></path><path class="olcls-1" d="M107.88 160.95h15.49v61.44h-15.49z"></path><path class="olcls-1" transform="rotate(90 115.63 191.67)" d="M107.88 160.95h15.49v61.44h-15.49z"></path><circle class="olcls-1" cx="287.42" cy="165.42" r="9.63"></circle><circle class="olcls-1" cx="287.42" cy="216.98" r="9.63"></circle><circle class="olcls-1" cx="313.2" cy="191.2" r="9.63"></circle><circle class="olcls-1" cx="261.63" cy="191.2" r="9.63"></circle></svg></defs>
                                                                <use xlink:href="#2402"></use>
                                                            </svg>