<svg xmlns:xlink="http://www.w3.org/1999/xlink" xmlns="http://www.w3.org/2000/svg" width="20" height="20"><defs><svg viewBox="-1.528 -1.35 33.028 29.725" id="664" xmlns="http://www.w3.org/2000/svg"><path fill="#00B9F2" d="M28.925 11.909c.197 0 .357.16.357.357v13.306c0 .196-.16.356-.357.356H1.12a.357.357 0 0 1-.357-.356V12.266c0-.197.16-.357.357-.357h27.805m0-.701H1.12c-.584 0-1.057.472-1.057 1.057v13.306c0 .583.473 1.056 1.057 1.056h27.805c.584 0 1.057-.473 1.057-1.056V12.266a1.058 1.058 0 0 0-1.057-1.058z"></path><path fill="#00B9F2" d="M3.305 15.172h.97v.97h-.97zm2 0h.97v.97h-.97zm2 0h.97v.97h-.97zm2 0h.97v.97h-.97zm2 0h.97v.97h-.97zm2 0h.97v.97h-.97zm2 0h.97v.97h-.97zm2 0h.971v.97h-.971zm2 0h.971v.97h-.971zm2 0h.971v.97h-.971zm2 0h.971v.97h-.971zm2 0h.971v.97h-.971zm-22 3.354h.97v.97h-.97zm2 0h.97v.97h-.97zm2 0h.97v.97h-.97zm2 0h.97v.97h-.97zm2 0h.97v.97h-.97zm2 0h.97v.97h-.97zm2 0h.97v.97h-.97zm2 0h.971v.97h-.971zm2 0h.971v.97h-.971zm2 0h.971v.97h-.971zm2 0h.971v.97h-.971zm2 0h.971v.97h-.971zm-22 3.271h.97v.97h-.97zm2 0h.97v.97h-.97zm2 0h.97v.97h-.97zm2.403 0h10.167v.97H9.708zm11.597 0h.971v.97h-.971zm2 0h.971v.97h-.971zm2 0h.971v.97h-.971zM14.703 11.741a.35.35 0 0 1-.35-.348c-.012-2.14-.021-2.983-.025-3.485-.004-.396-.006-.58-.006-1.018 0-1.385.717-2.213 1.966-2.271.648-.032 1.251.013 1.833.054.649.047 1.321.094 2.064.041.584-.042 1.595-.386 1.681-1.41.091-1.094.062-2.945.062-2.963a.35.35 0 0 1 .344-.356c.199.017.353.151.355.344.002.077.031 1.904-.063 3.034-.108 1.302-1.282 1.975-2.327 2.05-.796.057-1.491.007-2.165-.041-.587-.042-1.143-.082-1.75-.053-.322.014-1.3.06-1.3 1.572 0 .435.001.617.005 1.011.005.502.014 1.346.026 3.488a.35.35 0 0 1-.348.352l-.002-.001z"></path></svg></defs>
                                                                <use xlink:href="#664"></use>
                                                            </svg>