<svg xmlns:xlink="http://www.w3.org/1999/xlink" width="132" height="40" viewBox="0 0 132 40" fill="none" xmlns="http://www.w3.org/2000/svg">
        <g clip-path="url(#clip0_13797_77)" fill="none">
            <path d="M25.8424 12.8561C24.1915 11.2001 21.9091 10.3931 18.8647 10.3931C14.6074 10.3931 9.0635 11.2118 8.07543 11.3627V0H0V36.3229L0.056291 36.362C0.100821 36.393 1.16828 37.1337 3.44014 37.8802C5.52841 38.5687 9.07107 39.3887 14.0857 39.3887C19.1184 39.3887 22.9152 38.1381 25.3702 35.6717C27.8668 33.1625 29.0679 29.3872 29.0406 24.1301C29.0582 18.7198 28.0122 15.0317 25.8424 12.8561ZM21.05 24.6595V24.6616C21.0714 27.7757 20.7794 30.1589 19.2885 31.6595C18.0581 32.8966 16.0723 33.473 13.0388 33.473C9.77054 33.473 8.36658 32.8076 8.07543 32.6467V16.8411H15.9106C17.872 16.8411 19.073 17.1688 19.8053 17.9039C20.8794 18.9835 21.0672 21.0277 21.05 24.6595Z" fill="#53B7ED"></path>
            <path d="M72.0308 10.3945C65.5195 10.3945 58.4855 11.7405 58.4154 11.7539L58.3082 11.7754V16.8421H70.7335C72.0343 16.8421 72.9314 17.108 73.4786 17.6583C74.2181 18.4031 74.2115 19.5664 74.2054 20.691L74.205 22.066C73.4165 22.0075 69.5185 21.7362 66.1272 21.7362C57.9404 21.7362 54.6016 24.1059 54.6016 29.9154C54.6016 36.5491 57.8322 39.38 65.4043 39.38C74.3762 39.38 81.5433 36.8923 81.6151 36.8671L81.7035 36.836V20.883C81.7027 15.6961 80.5538 10.3945 72.0308 10.3945ZM74.2045 32.6124C73.48 32.7439 69.2703 33.4731 65.7857 33.4731C62.907 33.4731 62.3615 32.2028 62.3615 29.8566C62.3615 27.6788 63.3168 27.1146 67.0046 27.1146H74.205L74.2045 32.6124Z" fill="#53B7ED"></path>
            <path d="M121.547 10.3945C112.778 10.3945 103.373 12.2156 103.28 12.235L103.172 12.2543V38.2051H110.932V16.8421H119.202C120.992 16.8421 122.13 17.1487 122.781 17.8062C123.474 18.5077 123.605 19.6038 123.59 21.0363V38.2051H131.35V20.7628C131.351 13.4969 128.419 10.3945 121.547 10.3945Z" fill="#53B7ED"></path>
            <path d="M96.3224 11.1641H88.5625V38.2046H96.3224V11.1641Z" fill="#53B7ED"></path>
            <path d="M88.5 0V7.53686H96.3221V7.4789H96.3795V0H88.5Z" fill="#53B7ED"></path>
            <path d="M52.0927 10.3945C45.1025 10.3945 34.7759 12.206 34.6721 12.2232L34.5625 12.2446V38.2051H42.3178V16.8421H52.2245V10.3945H52.0927Z" fill="#53B7ED"></path>
        </g>
        <defs>
            <clipPath id="clip0_13797_77">
                <rect width="131.346" height="39.4039" fill="white"></rect>
            </clipPath>
        </defs>
    </svg>