<svg xmlns:xlink="http://www.w3.org/1999/xlink" width="18" height="18" viewBox="0 0 18 18" fill="none" xmlns="http://www.w3.org/2000/svg">
        <g clip-path="url(#clip0_13797_471)" fill="none">
            <rect width="18" height="18" fill="#FFFFFF"></rect>
            <path d="M10.2207 3.17285C10.9495 3.17556 11.4368 3.18386 11.7666 3.20215C12.0625 3.21856 12.4355 3.24714 12.7705 3.39746C12.9788 3.49095 13.1312 3.61047 13.2451 3.7207C13.2914 3.76548 13.3301 3.80826 13.3447 3.82422C13.3648 3.84616 13.367 3.84742 13.3691 3.84961L13.5205 4.02539C13.6672 4.21357 13.7967 4.43253 13.8777 4.60503C13.8779 4.60532 13.8779 4.60564 13.8779 4.60596C13.8779 4.60628 13.878 4.6066 13.8781 4.60689L13.9727 4.81152C14.0132 4.90918 14.0579 5.03366 14.0918 5.17578C14.1526 5.4312 14.175 5.71464 14.1885 6.0498C14.2021 6.3887 14.2081 6.87243 14.2109 7.58398C14.2115 7.87237 13.9778 8.10645 13.6895 8.10645H13.5731C13.2213 8.10645 12.9362 7.82049 12.9346 7.46876C12.927 5.8243 12.8988 5.55055 12.7959 5.30566L12.7227 5.14746C12.6733 5.0424 12.593 4.9129 12.5215 4.81934L12.4541 4.74023C12.1498 4.42761 12.4793 4.44576 7.22656 4.4502L3.84082 4.46289C2.96384 4.47007 2.40824 4.47946 2.38672 4.48926C2.09468 4.62241 1.83237 4.96144 1.70312 5.37207L1.66699 5.50488C1.63604 5.63813 1.62014 5.77502 1.62012 5.91211V15.1631L1.625 15.2988C1.634 15.4345 1.6558 15.5697 1.69141 15.7012L1.69238 15.7051C1.79384 16.0793 2.02401 16.4401 2.26855 16.6084C2.36468 16.6745 2.47454 16.717 2.58887 16.7344L2.7041 16.7432H8.62744C8.9799 16.7432 9.26562 17.0289 9.26562 17.3813C9.26562 17.7338 8.9799 18.0195 8.62744 18.0195H2.7041C2.34202 18.0194 1.98716 17.9234 1.67578 17.7422L1.54492 17.6592C1.05377 17.3211 0.711591 16.7745 0.529297 16.2578L0.460938 16.0391L0.459961 16.0342C0.383095 15.7503 0.343788 15.4572 0.34375 15.1631V5.91211C0.34378 5.59934 0.391559 5.28763 0.485352 4.98926L0.572266 4.75C0.801572 4.18784 1.22513 3.61649 1.8584 3.32812L1.97363 3.28223C2.07964 3.24594 2.15997 3.23341 2.16602 3.23242C2.20622 3.22524 2.23935 3.22157 2.25586 3.21973C2.29065 3.21585 2.3217 3.21398 2.33887 3.21289C2.37642 3.2105 2.41788 3.20835 2.45605 3.20703C2.53557 3.20429 2.64295 3.20149 2.77051 3.19922C3.0276 3.19465 3.39034 3.1911 3.83008 3.1875C4.71098 3.18029 5.91346 3.17493 7.22461 3.17383L10.2207 3.17285Z" fill="#0FAEE7"></path>
            <circle cx="13.0933" cy="13.1993" r="4.12301" stroke="#10B1E8" stroke-width="1.3px" fill="none"></circle>
            <path d="M7.17383 0.00390625C8.77874 0.0850947 10.0555 1.41205 10.0557 3.03711V5.82227H8.75488V3.03711C8.75474 2.07771 7.97701 1.2998 7.01758 1.2998C6.05837 1.30008 5.28041 2.07787 5.28027 3.03711V5.82227H3.98047V3.03711C3.98061 1.3599 5.3404 0.000271332 7.01758 0L7.17383 0.00390625Z" fill="#10B1E8"></path>
            <mask id="path-4-outside-1_13797_471" maskUnits="userSpaceOnUse" x="9.92188" y="10.0288" width="6" height="6" fill="black">
                <rect fill="#FFFFFF" x="9.92188" y="10.0288" width="6" height="6"></rect>
                <path d="M12.1074 11.7212L13.0215 11.73V11.731H13.3008L13.4863 11.7407C14.4031 11.8343 15.1191 12.6088 15.1191 13.5503L15.1104 13.7358C15.0232 14.5913 14.3418 15.2717 13.4863 15.3589L13.3008 15.3687H12.7393L12.5527 15.3589C12.5416 15.3578 12.5297 15.3545 12.5186 15.353V14.5659C12.5894 14.5812 12.6638 14.5903 12.7393 14.5903H13.3008C13.8744 14.5897 14.3402 14.124 14.3408 13.5503C14.3408 12.9761 13.8748 12.5099 13.3008 12.5093H12.7393C12.6639 12.5093 12.5894 12.5165 12.5186 12.5317V12.4995H12.1074V13.1069L10.9219 12.0679L12.1074 11.0288V11.7212Z"></path>
            </mask>
            <path d="M12.1074 11.7212L13.0215 11.73V11.731H13.3008L13.4863 11.7407C14.4031 11.8343 15.1191 12.6088 15.1191 13.5503L15.1104 13.7358C15.0232 14.5913 14.3418 15.2717 13.4863 15.3589L13.3008 15.3687H12.7393L12.5527 15.3589C12.5416 15.3578 12.5297 15.3545 12.5186 15.353V14.5659C12.5894 14.5812 12.6638 14.5903 12.7393 14.5903H13.3008C13.8744 14.5897 14.3402 14.124 14.3408 13.5503C14.3408 12.9761 13.8748 12.5099 13.3008 12.5093H12.7393C12.6639 12.5093 12.5894 12.5165 12.5186 12.5317V12.4995H12.1074V13.1069L10.9219 12.0679L12.1074 11.0288V11.7212Z" fill="#10B1E8"></path>
            <path d="M12.1074 11.7212H12.0074V11.8202L12.1065 11.8212L12.1074 11.7212ZM13.0215 11.73H13.1215V11.6309L13.0224 11.63L13.0215 11.73ZM13.0215 11.731H12.9215V11.831H13.0215V11.731ZM13.3008 11.731L13.306 11.631H13.3008V11.731ZM13.4863 11.7407L13.4965 11.6411L13.4916 11.6409L13.4863 11.7407ZM15.1191 13.5503L15.2191 13.555V13.5503H15.1191ZM15.1104 13.7358L15.21 13.746L15.2102 13.7406L15.1104 13.7358ZM13.4863 15.3589L13.4916 15.4589L13.4965 15.4584L13.4863 15.3589ZM13.3008 15.3687V15.4688L13.306 15.4685L13.3008 15.3687ZM12.7393 15.3687L12.734 15.4687H12.7393V15.3687ZM12.5527 15.3589L12.5426 15.4585L12.5475 15.4587L12.5527 15.3589ZM12.5186 15.353H12.4186V15.441L12.5058 15.4522L12.5186 15.353ZM12.5186 14.5659L12.5396 14.4682L12.4186 14.4421V14.5659H12.5186ZM13.3008 14.5903V14.6903L13.3009 14.6903L13.3008 14.5903ZM14.3408 13.5503L14.4408 13.5504V13.5503H14.3408ZM13.3008 12.5093L13.3009 12.4093H13.3008V12.5093ZM12.5186 12.5317H12.4186V12.6555L12.5396 12.6295L12.5186 12.5317ZM12.5186 12.4995H12.6186V12.3995H12.5186V12.4995ZM12.1074 12.4995V12.3995H12.0074V12.4995H12.1074ZM12.1074 13.1069L12.0415 13.1821L12.2074 13.3275V13.1069H12.1074ZM10.9219 12.0679L10.856 11.9927L10.7702 12.0679L10.856 12.1431L10.9219 12.0679ZM12.1074 11.0288H12.2074V10.8082L12.0415 10.9536L12.1074 11.0288ZM12.1074 11.7212L12.1065 11.8212L13.0205 11.83L13.0215 11.73L13.0224 11.63L12.1084 11.6212L12.1074 11.7212ZM13.0215 11.73H12.9215V11.731H13.0215H13.1215V11.73H13.0215ZM13.0215 11.731V11.831H13.3008V11.731V11.631H13.0215V11.731ZM13.3008 11.731L13.2955 11.8308L13.4811 11.8406L13.4863 11.7407L13.4916 11.6409L13.306 11.6311L13.3008 11.731ZM13.4863 11.7407L13.4762 11.8402C14.3425 11.9286 15.0191 12.6607 15.0191 13.5503H15.1191H15.2191C15.2191 12.557 14.4637 11.7399 13.4965 11.6412L13.4863 11.7407ZM15.1191 13.5503L15.0193 13.5456L15.0105 13.7311L15.1104 13.7358L15.2102 13.7406L15.219 13.555L15.1191 13.5503ZM15.1104 13.7358L15.0109 13.7257C14.9285 14.5339 14.2846 15.177 13.4762 15.2594L13.4863 15.3589L13.4965 15.4584C14.3991 15.3664 15.1178 14.6488 15.2098 13.746L15.1104 13.7358ZM13.4863 15.3589L13.4811 15.259L13.2955 15.2688L13.3008 15.3687L13.306 15.4685L13.4916 15.4587L13.4863 15.3589ZM13.3008 15.3687V15.2687H12.7393V15.3687V15.4687H13.3008V15.3687ZM12.7393 15.3687L12.7445 15.2688L12.558 15.259L12.5527 15.3589L12.5475 15.4587L12.734 15.4685L12.7393 15.3687ZM12.5527 15.3589L12.5628 15.2594C12.563 15.2594 12.5626 15.2594 12.5612 15.2591C12.5597 15.2589 12.5579 15.2585 12.5551 15.258C12.5507 15.2571 12.541 15.2551 12.5313 15.2538L12.5186 15.353L12.5058 15.4522C12.5072 15.4524 12.509 15.4527 12.5161 15.4541C12.5216 15.4552 12.5317 15.4573 12.5426 15.4584L12.5527 15.3589ZM12.5186 15.353H12.6186V14.5659H12.5186H12.4186V15.353H12.5186ZM12.5186 14.5659L12.4975 14.6637C12.5743 14.6802 12.6558 14.6903 12.7393 14.6903V14.5903V14.4903C12.6718 14.4903 12.6046 14.4821 12.5396 14.4682L12.5186 14.5659ZM12.7393 14.5903V14.6903H13.3008V14.5903V14.4903H12.7393V14.5903ZM13.3008 14.5903L13.3009 14.6903C13.9297 14.6897 14.4401 14.1792 14.4408 13.5504L14.3408 13.5503L14.2408 13.5502C14.2402 14.0687 13.8192 14.4898 13.3007 14.4903L13.3008 14.5903ZM14.3408 13.5503H14.4408C14.4408 12.9209 13.9301 12.41 13.3009 12.4093L13.3008 12.5093L13.3007 12.6093C13.8196 12.6098 14.2408 13.0313 14.2408 13.5503H14.3408ZM13.3008 12.5093V12.4093H12.7393V12.5093V12.6093H13.3008V12.5093ZM12.7393 12.5093V12.4093C12.6576 12.4093 12.576 12.4171 12.4975 12.434L12.5186 12.5317L12.5396 12.6295C12.6028 12.6159 12.6701 12.6093 12.7393 12.6093V12.5093ZM12.5186 12.5317H12.6186V12.4995H12.5186H12.4186V12.5317H12.5186ZM12.5186 12.4995V12.3995H12.1074V12.4995V12.5995H12.5186V12.4995ZM12.1074 12.4995H12.0074V13.1069H12.1074H12.2074V12.4995H12.1074ZM12.1074 13.1069L12.1733 13.0317L10.9878 11.9927L10.9219 12.0679L10.856 12.1431L12.0415 13.1821L12.1074 13.1069ZM10.9219 12.0679L10.9878 12.1431L12.1733 11.104L12.1074 11.0288L12.0415 10.9536L10.856 11.9927L10.9219 12.0679ZM12.1074 11.0288H12.0074V11.7212H12.1074H12.2074V11.0288H12.1074Z" fill="#10B1E8" mask="url(#path-4-outside-1_13797_471)"></path>
        </g>
        <defs>
            <clipPath id="clip0_13797_471">
                <rect width="18" height="18" fill="white"></rect>
            </clipPath>
        </defs>
    </svg>